<?xml version="1.0" encoding="utf-8"?>
<!-- Generator: Adobe Illustrator 16.0.0, SVG Export Plug-In . SVG Version: 6.00 Build 0)  -->
<!DOCTYPE svg PUBLIC "-//W3C//DTD SVG 1.1//EN" "http://www.w3.org/Graphics/SVG/1.1/DTD/svg11.dtd">
<svg version="1.1" id="Calque_1" xmlns="http://www.w3.org/2000/svg" xmlns:xlink="http://www.w3.org/1999/xlink" x="0px" y="0px"
	 width="70.75px" height="70.75px" viewBox="0 0 70.75 70.75" enable-background="new 0 0 70.75 70.75" xml:space="preserve">
<path d="M40.333,39.669L40.333,39.669h5.199c1.214,0,2.205,0.874,2.205,1.941v1.446c0,1.067-0.993,1.942-2.205,1.942h-5.2l0,0
	c-2.041,0-3.709-1.2-3.709-2.666C36.623,40.866,38.292,39.669,40.333,39.669z"/>
<path d="M33.929,48.868c0,1.466,1.668,2.664,3.708,2.664c0,0,0,0,0.003,0h3.952c1.213,0,2.205-0.873,2.205-1.94l0.002-1.446
	c0-1.067-0.991-1.941-2.205-1.941H37.64c-0.003,0-0.003,0-0.003,0C35.597,46.203,33.929,47.401,33.929,48.868z"/>
<path d="M31.231,55.401c0,1.465,1.67,2.664,3.709,2.664c0,0,0,0,0.002,0h2.709c1.213,0,2.207-0.873,2.207-1.94V54.68
	c0-1.067-0.992-1.94-2.205-1.94h-2.711c-0.002,0-0.002,0-0.002,0C32.899,52.737,31.231,53.935,31.231,55.401z"/>
<path d="M49.215,33.137L49.215,33.137h-2.082l-1.95,5.328h4.03c0.002,0,0.002,0,0.002,0c2.039,0,3.707-1.199,3.707-2.665
	C52.922,34.336,51.254,33.137,49.215,33.137z"/>
<path d="M23.743,46.796c0-1.363-0.21-2.689-0.584-3.943l10.211,3.739c-0.54,0.646-0.852,1.426-0.852,2.274
	c0,0.992,0.424,1.889,1.137,2.589c-1.836,0.366-3.248,1.5-3.688,2.967l-7.165-2.624l0,0C23.403,50.266,23.743,48.577,23.743,46.796z
	 M27.857,51.104c1.121,0.41,2.362-0.166,2.773-1.287s-0.167-2.361-1.286-2.771c-1.124-0.413-2.365,0.164-2.776,1.284
	C26.157,49.452,26.734,50.694,27.857,51.104z M45.308,21.096l-11.396-4.173c-2.304-0.844-4.867,0.374-5.725,2.718l-1.076,2.938
	c0.778,0.852,1.484,1.99,1.705,3.311l1.771-4.833l14.594,5.345l-4.344,11.857h2.918l4.172-11.389
	C48.784,24.526,47.612,21.94,45.308,21.096z"/>
<path d="M29.858,55.887l-8.979-3.29c0.914-1.686,1.452-3.67,1.452-5.801c0-1.486-0.262-2.9-0.727-4.196
	c1.853-4.761,5.032-12.938,5.629-14.552c1.202-3.248-2.342-5.543-2.342-5.543l-9.43,16.072c-2.467,4.283-3.635,6.492-3.497,11.621
	c0,0-3.424,3.959-6.76,6.037l9.114,14.515c3.685-3.413,5.728-4.865,9.531-6.81c7.94-1.098,10.783-4.477,10.783-4.477
	C32.114,59.349,30.14,57.854,29.858,55.887z"/>
<path fill="#FF3D00" d="M54.135,21.834c0-3.132-2.549-5.68-5.682-5.68c-2.082,0-3.9,1.13-4.89,2.806l2.228,0.815
	c0.121,0.044,0.233,0.098,0.353,0.149c0.553-0.668,1.377-1.104,2.311-1.104c1.662,0,3.015,1.352,3.015,3.013
	c0,1.268-0.788,2.35-1.897,2.795c0.103,0.893,0.009,1.822-0.322,2.725l-0.038,0.105C51.983,27.086,54.135,24.709,54.135,21.834z"/>
<path fill="#01579B" d="M59.468,21.834c0-6.073-4.939-11.013-11.015-11.013c-4.382,0-8.162,2.578-9.935,6.291l2.514,0.921
	c1.387-2.694,4.188-4.545,7.423-4.545c4.603,0,8.348,3.745,8.348,8.348s-3.745,8.348-8.348,8.348c-0.08,0-0.159-0.01-0.238-0.012
	l-0.571,1.561h1.569c0.976,0,1.876,0.21,2.644,0.573C56.271,30.865,59.468,26.718,59.468,21.834z"/>
<path fill="#FF3D00" d="M48.453,5.486c-6.709,0-12.484,4.063-15,9.857c0.319,0.06,0.634,0.144,0.942,0.256l1.609,0.59
	c2.154-4.733,6.918-8.038,12.447-8.038c7.545,0,13.682,6.137,13.682,13.681c0,5.571-3.352,10.367-8.141,12.499
	c0.215,0.454,0.336,0.947,0.336,1.469c0,0.496-0.11,0.966-0.307,1.401c6.28-2.283,10.777-8.311,10.777-15.369
	C64.802,12.819,57.468,5.486,48.453,5.486z"/>
</svg>
